<?xml version="1.0" encoding="UTF-8" standalone="no"?>
<svg
   xmlns:dc="http://purl.org/dc/elements/1.1/"
   xmlns:cc="http://creativecommons.org/ns#"
   xmlns:rdf="http://www.w3.org/1999/02/22-rdf-syntax-ns#"
   xmlns:svg="http://www.w3.org/2000/svg"
   xmlns="http://www.w3.org/2000/svg"
   xmlns:sodipodi="http://sodipodi.sourceforge.net/DTD/sodipodi-0.dtd"
   xmlns:inkscape="http://www.inkscape.org/namespaces/inkscape"
   inkscape:version="1.0 (4035a4fb49, 2020-05-01)"
   sodipodi:docname="Jovian_Logo_SVG_File.svg"
   id="svg806"
   style="clip-rule:evenodd;fill-rule:evenodd;stroke-linejoin:round;stroke-miterlimit:2"
   xml:space="preserve"
   version="1.1"
   viewBox="0 0 452.90036 451.16287"
   height="451.16287"
   width="452.90036"><metadata
   id="metadata810"><rdf:RDF><cc:Work
       rdf:about=""><dc:format>image/svg+xml</dc:format><dc:type
         rdf:resource="http://purl.org/dc/dcmitype/StillImage" /><dc:title></dc:title></cc:Work></rdf:RDF></metadata><sodipodi:namedview
   inkscape:current-layer="svg806"
   inkscape:window-maximized="0"
   inkscape:window-y="0"
   inkscape:window-x="0"
   inkscape:cy="225.99951"
   inkscape:cx="678.99965"
   inkscape:zoom="0.80486009"
   showgrid="false"
   id="namedview808"
   inkscape:window-height="712"
   inkscape:window-width="1374"
   inkscape:pageshadow="2"
   inkscape:pageopacity="0"
   guidetolerance="10"
   gridtolerance="10"
   objecttolerance="10"
   borderopacity="1"
   bordercolor="#666666"
   pagecolor="#ffffff" />
    <g
   id="g681"
   transform="matrix(4.16667,0,0,4.16667,-646.23635,-194.95349)">
        <g
   transform="translate(-88.1934,-31.3102)"
   id="Logo">
            <g
   id="g586"
   transform="translate(270.498,174.466)">
                <path
   id="path584"
   style="fill:#cbcaca"
   d="m 0,-84.321 c 4.972,-3.207 10.545,-5.557 16.517,-6.846 0.009,1.001 0.159,1.967 0.429,2.883 -5.49,1.208 -10.623,3.371 -15.215,6.306 C 1.276,-82.816 0.699,-83.606 0,-84.321 m -21.869,31.538 c 1.288,-5.971 3.639,-11.546 6.847,-16.517 0.715,0.7 1.506,1.277 2.343,1.734 -2.934,4.59 -5.098,9.723 -6.304,15.213 -0.917,-0.27 -1.883,-0.419 -2.886,-0.43 m 6.847,37.761 c -3.207,-4.971 -5.559,-10.546 -6.847,-16.516 1.003,-0.012 1.969,-0.16 2.886,-0.431 1.206,5.49 3.37,10.623 6.304,15.214 -0.837,0.457 -1.628,1.035 -2.343,1.733 M 16.514,6.846 C 10.545,5.558 4.971,3.207 0,0 c 0.699,-0.715 1.276,-1.506 1.731,-2.344 4.582,2.929 9.703,5.09 15.179,6.3 -0.258,0.917 -0.396,1.883 -0.396,2.882 z M 54.278,0 C 49.308,3.207 43.733,5.557 37.763,6.845 V 6.838 c 0,-0.999 -0.135,-1.967 -0.395,-2.883 5.477,-1.21 10.596,-3.37 15.178,-6.298 0.455,0.837 1.033,1.628 1.732,2.343 m 21.868,-31.538 c -1.29,5.97 -3.639,11.545 -6.846,16.516 -0.715,-0.699 -1.504,-1.276 -2.342,-1.733 2.936,-4.591 5.098,-9.723 6.305,-15.214 0.918,0.27 1.883,0.419 2.883,0.431 m -6.883,-37.82 c 3.226,4.986 5.591,10.58 6.883,16.575 -1,0.011 -1.965,0.16 -2.883,0.43 -1.211,-5.513 -3.389,-10.666 -6.344,-15.271 0.84,-0.456 1.629,-1.034 2.344,-1.734 m -31.5,-21.809 c 5.994,1.294 11.588,3.658 16.574,6.883 -0.699,0.715 -1.277,1.505 -1.734,2.344 -4.606,-2.955 -9.756,-5.13 -15.272,-6.344 0.27,-0.915 0.42,-1.882 0.432,-2.883" />
            </g>
            <g
   id="g590"
   transform="translate(259.126,132.586)">
                <path
   id="path588"
   style="fill:#cbcaca"
   d="m 0,-0.559 37.17,0.012 -37.459,-15.53 c -0.134,-0.057 -0.2,-0.213 -0.145,-0.349 0.057,-0.136 0.213,-0.201 0.349,-0.144 L 37.374,-1.04 11.1,-27.332 l 0.18,-0.178 0.197,-0.2 26.274,26.293 -15.505,-37.469 c -0.056,-0.135 0.008,-0.292 0.144,-0.348 0.136,-0.056 0.293,0.009 0.349,0.144 l 15.505,37.469 0.014,-37.169 0.252,0.003 0.281,-0.003 -0.012,37.169 15.53,-37.459 c 0.056,-0.135 0.214,-0.2 0.347,-0.144 0.137,0.057 0.203,0.213 0.147,0.349 l -15.532,37.459 26.34,-26.324 0.178,0.182 c 0.066,0.066 0.133,0.131 0.199,0.195 L 39.65,-1.039 77.119,-16.544 c 0.135,-0.057 0.291,0.008 0.348,0.144 0.056,0.135 -0.01,0.293 -0.147,0.349 L 39.852,-0.547 77.021,-0.534 77.02,-0.28 77.021,0.001 39.852,-0.013 77.311,15.519 c 0.136,0.055 0.203,0.212 0.146,0.347 -0.057,0.137 -0.215,0.201 -0.352,0.145 L 39.65,0.48 65.922,26.772 65.74,26.948 65.545,27.149 39.271,0.858 54.777,38.326 c 0.055,0.136 -0.011,0.292 -0.146,0.349 -0.135,0.056 -0.293,-0.008 -0.348,-0.145 L 38.777,1.062 38.766,38.096 38.51,38.093 38.231,38.097 38.244,1.061 22.712,38.52 c -0.055,0.136 -0.212,0.2 -0.349,0.144 -0.134,-0.056 -0.199,-0.213 -0.142,-0.348 L 37.75,0.857 11.46,27.131 11.28,26.948 11.081,26.753 37.374,0.479 -0.095,15.985 C -0.23,16.042 -0.387,15.977 -0.443,15.84 -0.5,15.704 -0.435,15.548 -0.301,15.492 L 37.169,-0.014 0,-0.025 0.005,-0.28 Z" />
            </g>
            <g
   id="g594"
   transform="matrix(15.1024,-9.009,-3.41531,-5.72533,298.738,132.805)">
                <path
   id="path592"
   style="fill:url(#_Radial1);fill-rule:nonzero"
   d="m 0.161,0.855 -0.758,-1.068 v 0 c 0.019,-0.068 0.037,-0.138 0.054,-0.209 0.069,-0.28 0.127,-0.584 0.174,-0.889 0.155,0.046 0.318,0.049 0.474,-0.007 v 0 c 0.027,0.121 0.053,0.233 0.078,0.335 0.186,0.777 0.3,1.028 0.432,0.82 0.082,-0.129 0.153,-0.435 0.21,-0.817 L 0.863,0.007 0.677,0.715 Z" />
            </g>
            <g
   id="g598"
   transform="translate(291.305,122.612)">
                <path
   id="path596"
   style="fill:#1f4821"
   d="m 0,17.173 c 3.203,-5.577 9.362,-9.67 14.71,-10.107 0.574,-1.019 1.396,-1.479 2.566,-1.479 1.682,0 3.801,1.109 5.965,2.78 L 20.44,2.377 15.21,0 6.937,3.851 -0.794,16.692 c 0.266,0.156 0.529,0.316 0.794,0.481" />
            </g>
            <g
   id="g602"
   transform="matrix(-5.90409,-7.76844,-7.76844,5.90409,296.245,134.22)">
                <path
   id="path600"
   style="fill:url(#_Linear2);fill-rule:nonzero"
   d="m 0.871,-0.841 c 0.315,0.043 0.603,0.199 0.788,0.442 C 2.145,0.24 1.679,1.92 0.943,2.508 1.185,1.91 1.366,0.777 1.084,0.406 0.894,0.156 0.594,0.295 -0.064,0.794 L 0.509,-0.644 0.31,-1.558 -0.208,-1.837 -0.87,-1.694 c -0.461,-0.125 -1.063,-0.159 -1.466,-0.113 0.763,-0.552 2.506,-0.551 2.992,0.088 0.185,0.243 0.257,0.563 0.215,0.878 z" />
            </g>
            <g
   id="g606"
   transform="matrix(9.66584,-11.0221,-5.61465,-4.92378,281.624,137.313)">
                <path
   id="path604"
   style="fill:url(#_Radial3);fill-rule:nonzero"
   d="M -0.226,1.133 C -0.409,1.02 -0.573,0.861 -0.694,0.663 -0.272,0.816 0.491,0.752 0.695,0.294 0.822,0.01 0.722,-0.307 0.381,-0.913 c 0.488,0.61 0.622,1.229 0.443,1.629 -0.147,0.329 -0.505,0.51 -1.05,0.417 z" />
            </g>
            <g
   id="g610"
   transform="matrix(1.02318,4.176,4.176,-1.02318,298.285,136.919)">
                <path
   id="path608"
   style="fill:url(#_Linear4);fill-rule:nonzero"
   d="m 0.462,-1.619 c 0.319,0.369 0.648,0.799 1.02,1.1 C 1.228,0.068 1.028,0.703 0.924,1.34 v 0 C 0.529,1.437 0.189,1.528 -0.101,1.619 -0.123,1.557 -0.141,1.494 -0.157,1.429 -0.383,0.506 -0.034,-0.728 0.462,-1.619 Z" />
            </g>
            <g
   id="g614"
   transform="matrix(-18.2681,-9.57426,-9.57426,18.2681,321.246,137.772)">
                <path
   id="path612"
   style="fill:url(#_Linear5);fill-rule:nonzero"
   d="M 1.358,-0.125 C 1.436,0.155 1.406,0.423 1.327,0.686 1.314,0.711 1.3,0.736 1.286,0.763 v 0 C 1.271,0.762 1.256,0.761 1.24,0.76 1.28,0.313 0.992,-0.182 0.64,-0.155 v 0 c -0.237,-0.017 -0.633,0.126 -0.85,0.26 0.216,-0.39 0.963,-0.739 1.299,-0.563 0.128,0.067 0.224,0.189 0.269,0.333 z" />
            </g>
            <g
   id="g618"
   transform="matrix(18.6338,7.42825,3.70892,-9.30385,282.416,148.413)">
                <path
   id="path616"
   style="fill:url(#_Radial6);fill-rule:nonzero"
   d="m -0.56,-0.234 c 0.107,-0.533 0.402,-0.66 0.658,-0.456 0.217,0.174 0.416,0.57 0.563,0.933 0.025,0.063 0.049,0.124 0.071,0.183 L 0.671,0.733 0.057,1.122 C 0.038,1.119 0.018,1.114 -0.001,1.108 -0.071,1.087 -0.139,1.052 -0.203,1.002 -0.456,0.8 -0.667,0.304 -0.56,-0.234 Z" />
            </g>
            <g
   id="g622"
   transform="matrix(35.2587,9.11742,2.06874,-8.0002,309.889,152.119)">
                <path
   id="path620"
   style="fill:url(#_Radial7);fill-rule:nonzero"
   d="m -0.384,0.622 c -0.095,0.175 -0.2,0.297 -0.302,0.312 L -0.364,0.279 -0.341,-0.11 C -0.209,-0.289 -0.024,-0.457 0.122,-0.29 0.269,-0.123 0.38,0.425 0.34,1.099 0.3,1.778 0.126,1.96 -0.019,1.795 -0.159,1.635 -0.289,1.155 -0.384,0.622 Z" />
            </g>
            <g
   id="g626"
   transform="translate(318.956,155.032)">
                <path
   id="path624"
   style="fill:#ae5b25"
   d="m 0,-16.139 c 2.832,3.259 0.354,9.245 -6.369,8.775 -6.07,-0.424 -10.242,-2.485 -13.861,-4.826 -0.37,0.259 -0.733,0.525 -1.09,0.796 -3.108,-2.212 -6.511,-4.176 -9.988,-5.24 l 9.988,8.173 v 2.304 c 4.064,2.812 9.634,5.905 14.81,6.267 C -1.008,0.495 4.254,-2.521 4.654,-8.26 4.908,-11.844 2.875,-14.526 0,-16.139" />
            </g>
            <g
   id="g630"
   transform="matrix(-0.787943,1.31614,1.31614,0.787943,285.933,144.264)">
                <path
   id="path628"
   style="fill:url(#_Linear8);fill-rule:nonzero"
   d="M 2.517,-8.175 C 3.38,-8.358 4.274,-8.329 5.157,-8.03 -0.046,-6.1 0.11,0.701 2.871,6.241 1.637,7.098 0.367,7.833 -0.774,8.428 -1.43,5.288 -2.087,2.146 -2.742,-0.995 c 0.856,-1.631 1.71,-3.261 2.567,-4.892 z" />
            </g>
            <g
   id="g634"
   transform="translate(296.611,139.394)">
                <path
   id="path632"
   style="fill:#59100b"
   d="M 0,11.106 C 0.353,10.9 0.694,10.694 1.024,10.492 -2.591,7.153 -6.209,3.815 -9.826,0.477 -12.646,0.318 -15.467,0.159 -18.287,0 l -4.767,1.615 c -1.069,0.991 -1.869,2.229 -2.255,3.715 3.055,-2.807 7.282,-4.126 11.243,-2.884 5.045,1.585 9.413,5.643 14.066,8.66" />
            </g>
            <g
   id="g638"
   transform="matrix(70.8641,2.7304,0.438503,-11.3808,311.473,149.848)">
                <path
   id="path636"
   style="fill:url(#_Radial9);fill-rule:nonzero"
   d="m -0.569,0.314 c 0.04,0.267 0.098,0.413 0.155,0.332 0.077,-0.109 0.146,-0.464 0.219,-0.696 0.062,-0.217 0.15,-0.462 0.228,-0.444 0.078,0.019 0.147,0.332 0.144,0.837 C 0.175,0.658 0.142,0.873 0.099,0.986 0.144,0.729 0.119,0.183 0.024,0.16 -0.186,0.11 -0.251,1.017 -0.417,0.977 -0.486,0.961 -0.557,0.729 -0.569,0.314 Z" />
            </g>
            <g
   id="g642"
   transform="matrix(-1,0,0,1,297.641,119.508)">
                <path
   id="path640"
   style="fill:#3b0f52"
   d="m 0.005,-16.639 c -3.477,0 -6.297,3.725 -6.297,8.32 0,4.594 2.82,8.319 6.297,8.319 3.475,0 6.292,-3.725 6.292,-8.319 0,-4.595 -2.817,-8.32 -6.292,-8.32" />
            </g>
            <g
   id="g646"
   transform="matrix(0.0139963,13.7399,11.5251,0,297.664,115.943)">
                <path
   id="path644"
   style="fill:url(#_Radial10);fill-rule:nonzero"
   d="m -0.408,-0.545 c 0.305,0.028 0.543,0.26 0.543,0.542 0,0.283 -0.238,0.516 -0.543,0.545 -0.305,-0.028 -0.544,-0.261 -0.544,-0.543 0,-0.283 0.239,-0.516 0.544,-0.544 z" />
            </g>
            <g
   id="g650"
   transform="translate(0,-734.872)">
                <path
   id="path648"
   style="fill:#5e5f5f"
   d="m 327.237,829.185 h 10.281 v 1.25 h -10.281 z m 0,1.75 h 10.281 v 1.251 h -10.281 z m 0,3.501 h 10.281 v 1.25 h -10.281 z m 0,1.751 h 10.281 v 1.25 h -10.281 z m 0,-3.501 h 10.281 v 1.251 h -10.281 z m 0,-5.251 h 10.281 v 1.25 h -10.281 z" />
            </g>
            <g
   id="g654"
   transform="translate(0,-763.653)">
                <path
   id="path652"
   style="fill:#5e5f5f"
   d="m 292.42,843.528 h 10.433 v 1.268 H 292.42 Z m 0,1.777 h 10.433 v 1.268 H 292.42 Z m 0,3.551 h 10.433 v 1.27 H 292.42 Z m 0,1.776 h 10.433 v 1.269 H 292.42 Z m 0,-3.552 h 3.09 v 1.269 h -3.09 z m 7.345,0 h 3.088 v 1.269 h -3.088 z m -7.345,-5.328 h 10.433 v 1.269 H 292.42 Z" />
            </g>
            <g
   id="g658"
   transform="translate(0,-734.871)">
                <path
   id="path656"
   style="fill:#5e5f5f"
   d="m 257.68,829.137 h 10.433 v 1.269 H 257.68 Z m 0,1.776 h 10.433 v 1.269 H 257.68 Z m 0,1.775 h 10.433 v 1.269 H 257.68 Z m 0,3.552 h 10.433 v 1.269 H 257.68 Z m 0,-1.775 h 3.088 v 1.268 h -3.088 z m 7.344,0 h 3.088 v 1.268 h -3.088 z m -7.344,-7.103 h 10.433 v 1.269 H 257.68 Z" />
            </g>
            <g
   id="g662"
   transform="translate(0,-665.39)">
                <path
   id="path660"
   style="fill:#5e5f5f"
   d="m 243.29,794.397 h 10.433 v 1.27 H 243.29 Z m 0,1.776 h 10.433 v 1.269 H 243.29 Z m 0,5.328 h 10.433 v 1.268 H 243.29 Z m 7.345,-3.552 h 3.088 v 1.269 h -3.088 z m -7.345,0 h 3.088 v 1.269 h -3.088 z m 7.345,1.775 h 3.088 v 1.269 h -3.088 z m -7.345,0 h 3.088 v 1.269 h -3.088 z m 0,-7.103 h 10.433 v 1.269 H 243.29 Z" />
            </g>
            <g
   id="g666"
   transform="translate(0,-665.39)">
                <path
   id="path664"
   style="fill:#5e5f5f"
   d="m 348.897,792.621 h 3.088 v 1.269 h -3.088 z m -7.343,0 h 3.088 v 1.269 h -3.088 z m 7.343,1.776 h 3.088 v 1.27 h -3.088 z m -7.343,0 h 3.088 v 1.27 h -3.088 z m 7.343,1.776 h 3.088 v 1.269 h -3.088 z m -7.343,0 h 3.088 v 1.269 h -3.088 z m 7.343,5.328 h 3.088 v 1.268 h -3.088 z m -7.343,0 h 3.088 v 1.268 h -3.088 z m 0,-3.552 h 10.432 v 1.269 h -10.432 z m 0,1.775 h 10.432 v 1.269 h -10.432 z" />
            </g>
            <g
   id="g670"
   transform="translate(0,-595.906)">
                <path
   id="path668"
   style="fill:#5e5f5f"
   d="m 334.509,763.206 h 3.088 v 1.269 h -3.088 z m -7.346,0 h 3.088 v 1.269 h -3.088 z m 7.346,-5.328 h 3.088 v 1.269 h -3.088 z m -7.346,0 h 3.088 v 1.269 h -3.088 z m 7.346,1.777 h 3.088 v 1.269 h -3.088 z m -7.346,0 h 3.088 v 1.269 h -3.088 z m 7.346,1.776 h 3.088 v 1.269 h -3.088 z m -7.346,0 h 3.088 v 1.269 h -3.088 z m 7.346,5.328 h 3.088 v 1.269 h -3.088 z m -7.346,0 h 3.088 v 1.269 h -3.088 z m 0,-1.776 h 10.434 v 1.269 h -10.434 z" />
            </g>
            <g
   id="g674"
   transform="translate(0,-567.392)">
                <path
   id="path672"
   style="fill:#5e5f5f"
   d="m 299.765,743.622 h 3.088 v 1.269 h -3.088 z m -7.345,0 h 3.09 v 1.269 h -3.09 z m 7.345,1.776 h 3.088 v 1.268 h -3.088 z m -7.345,0 h 3.09 v 1.268 h -3.09 z m 7.345,1.775 h 3.088 v 1.269 h -3.088 z m -7.345,0 h 3.09 v 1.269 h -3.09 z m 7.345,3.552 h 3.088 v 1.269 h -3.088 z m -7.345,0 h 3.09 v 1.269 h -3.09 z m 7.345,1.776 h 3.088 v 1.269 h -3.088 z m -7.345,0 h 3.09 v 1.269 h -3.09 z m 0,-3.551 h 10.433 v 1.268 H 292.42 Z" />
            </g>
            <g
   id="g678"
   transform="translate(0,-595.905)">
                <path
   id="path676"
   style="fill:#5e5f5f"
   d="m 265.024,763.205 h 3.088 v 1.269 h -3.088 z m 0,-5.327 h 3.088 v 1.268 h -3.088 z m -7.344,0 h 3.088 v 1.268 h -3.088 z m 7.344,1.776 h 3.088 v 1.269 h -3.088 z m -7.344,0 h 3.088 v 1.269 h -3.088 z m 7.344,1.776 h 3.088 v 1.269 h -3.088 z m -7.344,0 h 3.088 v 1.269 h -3.088 z m 7.344,3.552 h 3.088 v 1.269 h -3.088 z m -7.344,0 h 3.088 v 1.269 h -3.088 z m 7.344,1.775 h 3.088 v 1.27 h -3.088 z m -7.344,0 h 3.088 v 1.27 h -3.088 z m 0,-3.552 h 3.088 v 1.269 h -3.088 z" />
            </g>
        </g>
    </g>
    
    
    <defs
   id="defs804">
        <radialGradient
   gradientTransform="matrix(1,0,0,-1,0,-0.463053)"
   gradientUnits="userSpaceOnUse"
   r="1"
   cy="0"
   cx="0"
   id="_Radial1"><stop
     id="stop754"
     style="stop-color:rgb(109,190,79);stop-opacity:1"
     offset="0" /><stop
     id="stop756"
     style="stop-color:rgb(31,72,33);stop-opacity:1"
     offset="1" /></radialGradient>
        <linearGradient
   gradientTransform="matrix(1,0,0,-1,0,0.148775)"
   gradientUnits="userSpaceOnUse"
   y2="0"
   x2="1"
   y1="0"
   x1="0"
   id="_Linear2"><stop
     id="stop759"
     style="stop-color:rgb(13,65,110);stop-opacity:1"
     offset="0" /><stop
     id="stop761"
     style="stop-color:rgb(1,170,227);stop-opacity:1"
     offset="1" /></linearGradient>
        <radialGradient
   gradientTransform="matrix(1,0,0,-1,0,0.313787)"
   gradientUnits="userSpaceOnUse"
   r="1"
   cy="0"
   cx="0"
   id="_Radial3"><stop
     id="stop764"
     style="stop-color:rgb(1,170,227);stop-opacity:1"
     offset="0" /><stop
     id="stop766"
     style="stop-color:rgb(13,65,110);stop-opacity:1"
     offset="1" /></radialGradient>
        <linearGradient
   gradientTransform="matrix(1,0,0,-1,0,-2.00812e-4)"
   gradientUnits="userSpaceOnUse"
   y2="0"
   x2="1"
   y1="0"
   x1="0"
   id="_Linear4"><stop
     id="stop769"
     style="stop-color:rgb(21,107,54);stop-opacity:1"
     offset="0" /><stop
     id="stop771"
     style="stop-color:rgb(109,190,79);stop-opacity:1"
     offset="1" /></linearGradient>
        <linearGradient
   gradientTransform="matrix(1,0,0,-1,0,0.129263)"
   gradientUnits="userSpaceOnUse"
   y2="0"
   x2="1"
   y1="0"
   x1="0"
   id="_Linear5"><stop
     id="stop774"
     style="stop-color:rgb(31,72,33);stop-opacity:1"
     offset="0" /><stop
     id="stop776"
     style="stop-color:rgb(25,148,70);stop-opacity:1"
     offset="1" /></linearGradient>
        <radialGradient
   gradientTransform="matrix(1,0,0,-1,0,0.22845)"
   gradientUnits="userSpaceOnUse"
   r="1"
   cy="0"
   cx="0"
   id="_Radial6"><stop
     id="stop779"
     style="stop-color:rgb(237,28,36);stop-opacity:1"
     offset="0" /><stop
     id="stop781"
     style="stop-color:rgb(131,20,23);stop-opacity:1"
     offset="1" /></radialGradient>
        <radialGradient
   gradientTransform="matrix(1,0,0,-1,0,1.50301)"
   gradientUnits="userSpaceOnUse"
   r="1"
   cy="0"
   cx="0"
   id="_Radial7"><stop
     id="stop784"
     style="stop-color:rgb(255,194,21);stop-opacity:1"
     offset="0" /><stop
     id="stop786"
     style="stop-color:rgb(214,113,39);stop-opacity:1"
     offset="1" /></radialGradient>
        <linearGradient
   gradientTransform="matrix(1,0,0,-1,0,0.0699432)"
   gradientUnits="userSpaceOnUse"
   y2="0"
   x2="1"
   y1="0"
   x1="0"
   id="_Linear8"><stop
     id="stop789"
     style="stop-color:rgb(131,20,23);stop-opacity:1"
     offset="0" /><stop
     id="stop791"
     style="stop-color:rgb(165,27,31);stop-opacity:1"
     offset="1" /></linearGradient>
        <radialGradient
   gradientTransform="matrix(1,0,0,-1,0,0.505088)"
   gradientUnits="userSpaceOnUse"
   r="1"
   cy="0"
   cx="0"
   id="_Radial9"><stop
     id="stop794"
     style="stop-color:rgb(255,194,21);stop-opacity:1"
     offset="0" /><stop
     id="stop796"
     style="stop-color:rgb(165,27,31);stop-opacity:1"
     offset="1" /></radialGradient>
        <radialGradient
   gradientTransform="matrix(-0.999996,-0.00288262,-0.00288262,0.999996,-0.816574,-0.00117694)"
   gradientUnits="userSpaceOnUse"
   r="1"
   cy="0"
   cx="0"
   id="_Radial10"><stop
     id="stop799"
     style="stop-color:rgb(163,76,157);stop-opacity:1"
     offset="0" /><stop
     id="stop801"
     style="stop-color:rgb(59,15,82);stop-opacity:1"
     offset="1" /></radialGradient>
    </defs>
</svg>
