<svg width="612" height="612" viewBox="0 0 612 612" fill="none" xmlns="http://www.w3.org/2000/svg">
<rect width="612" height="612" fill="white"/>
<path d="M357.629 467.71V307.902L423.007 274.081L455.381 362.181C467.2 394.344 451.314 430.077 419.518 442.849L357.629 467.71Z" fill="url(#paint0_linear_2408_333)"/>
<path d="M357.629 467.71V307.902L423.007 274.081L455.381 362.181C467.2 394.344 451.314 430.077 419.518 442.849L357.629 467.71Z" fill="url(#paint1_linear_2408_333)"/>
<g style="mix-blend-mode:multiply" opacity="0.4">
<path fill-rule="evenodd" clip-rule="evenodd" d="M357.629 451.503L388.249 443.025C421.273 433.881 441.048 400.144 432.893 366.863L411.603 279.98L357.629 307.902V451.503Z" fill="url(#paint2_linear_2408_333)"/>
</g>
<path d="M254.095 467.71V307.902L188.716 274.081L156.342 362.181C144.523 394.344 160.409 430.077 192.206 442.849L254.095 467.71Z" fill="url(#paint3_linear_2408_333)"/>
<path d="M254.095 467.71V307.902L188.716 274.081L156.342 362.181C144.523 394.344 160.409 430.077 192.206 442.849L254.095 467.71Z" fill="url(#paint4_linear_2408_333)"/>
<g style="mix-blend-mode:multiply" opacity="0.4">
<path fill-rule="evenodd" clip-rule="evenodd" d="M254.095 451.503L223.475 443.025C190.451 433.881 170.676 400.144 178.831 366.863L200.12 279.98L254.095 307.902V451.503Z" fill="url(#paint5_linear_2408_333)"/>
</g>
<path fill-rule="evenodd" clip-rule="evenodd" d="M210.621 248.8L194.476 385.698C186.602 452.468 250.923 511.146 305.999 511.146Lnan nanCnan nan -nan -nan -nan -nanC-nan -nan -nan -nan -nan -nanC-nan -nan -nan -nan -nan -nanL-nan -nanC-nan -nan -nan -nan -nan -nanC-nan -nan -nan -nan -nan -nanC-nan -nan nan nan nan nanL305.999 511.146C361.076 511.146 425.397 452.468 417.522 385.698L401.378 248.8H210.621Z" fill="url(#paint6_linear_2408_333)"/>
<path fill-rule="evenodd" clip-rule="evenodd" d="M235.378 248.8L223.424 350.165C217.593 399.604 265.219 443.051 306 443.051Lnan nanCnan nan -nan -nan -nan -nanC-nan -nan -nan -nan -nan -nanC-nan -nan -nan -nan -nan -nanL-nan -nanC-nan -nan -nan -nan -nan -nanC-nan -nan -nan -nan -nan -nanC-nan -nan nan nan nan nanL306 443.051C346.78 443.051 394.406 399.604 388.576 350.165L376.622 248.8H235.378Z" fill="white" fill-opacity="0.08"/>
<path d="M424.993 184.421C424.993 230.574 371.717 267.988 305.998 267.988C240.279 267.988 187.003 230.574 187.003 184.421C187.003 138.268 240.279 100.854 305.998 100.854C371.717 100.854 424.993 138.268 424.993 184.421Z" fill="url(#paint7_linear_2408_333)"/>
<g style="mix-blend-mode:multiply" opacity="0.4">
<path fill-rule="evenodd" clip-rule="evenodd" d="M315.141 267.745C376.589 264.467 424.995 228.414 424.995 184.421C424.995 163.339 413.879 144.08 395.538 129.378C385.337 129.794 376.012 129.833 368.54 129.642C341.686 129.642 306.002 171.958 306.002 171.958C306.002 171.958 270.317 129.642 243.464 129.642C235.99 129.833 226.664 129.794 216.462 129.377C198.121 144.08 187.005 163.339 187.005 184.421C187.005 228.414 235.413 264.468 296.862 267.745C300.352 263.246 303.422 258.303 306.002 252.998C308.581 258.302 311.651 263.245 315.141 267.745Z" fill="url(#paint8_linear_2408_333)"/>
</g>
<path fill-rule="evenodd" clip-rule="evenodd" d="M171.777 227.895C171.777 273.644 203.871 310.731 243.462 310.731C270.315 310.731 293.719 293.67 306 268.415C318.28 293.67 341.685 310.731 368.538 310.731C408.128 310.731 440.223 273.644 440.223 227.895C440.223 215.092 437.709 202.967 433.221 192.144C457.867 189.599 480.507 162.764 488.746 149.665C479.537 162.251 452.56 168.052 440.223 169.379C468.498 163.9 487.801 133.611 493.919 119.152C475.654 141.983 402.721 145.936 368.538 145.059C341.685 145.059 306 187.375 306 187.375C306 187.375 270.315 145.059 243.462 145.059C209.278 145.936 136.345 141.983 118.081 119.152C124.198 133.611 143.502 163.9 171.777 169.379C159.439 168.052 132.462 162.251 123.253 149.665C131.492 162.764 154.132 189.599 178.778 192.144C174.29 202.967 171.777 215.092 171.777 227.895Z" fill="#D9D9D9"/>
<path fill-rule="evenodd" clip-rule="evenodd" d="M171.777 227.895C171.777 273.644 203.871 310.731 243.462 310.731C270.315 310.731 293.719 293.67 306 268.415C318.28 293.67 341.685 310.731 368.538 310.731C408.128 310.731 440.223 273.644 440.223 227.895C440.223 215.092 437.709 202.967 433.221 192.144C457.867 189.599 480.507 162.764 488.746 149.665C479.537 162.251 452.56 168.052 440.223 169.379C468.498 163.9 487.801 133.611 493.919 119.152C475.654 141.983 402.721 145.936 368.538 145.059C341.685 145.059 306 187.375 306 187.375C306 187.375 270.315 145.059 243.462 145.059C209.278 145.936 136.345 141.983 118.081 119.152C124.198 133.611 143.502 163.9 171.777 169.379C159.439 168.052 132.462 162.251 123.253 149.665C131.492 162.764 154.132 189.599 178.778 192.144C174.29 202.967 171.777 215.092 171.777 227.895Z" fill="url(#paint9_linear_2408_333)"/>
<path d="M301.936 317.087C303.559 320.519 308.443 320.519 310.066 317.087L324.065 287.486C329.238 276.548 321.26 263.949 309.16 263.949H302.841C290.742 263.949 282.764 276.548 287.937 287.486L301.936 317.087Z" fill="url(#paint10_linear_2408_333)"/>
<g style="mix-blend-mode:multiply" opacity="0.4">
<path fill-rule="evenodd" clip-rule="evenodd" d="M287.021 285.104C289 278.488 295.07 273.291 302.841 273.291H309.16C316.931 273.291 323.002 278.488 324.981 285.104C328.068 274.8 320.389 263.949 309.16 263.949H302.841C291.613 263.949 283.934 274.8 287.021 285.104Z" fill="url(#paint11_linear_2408_333)"/>
</g>
<path d="M209.846 226.965C209.846 247.391 226.404 263.95 246.83 263.95C267.256 263.95 283.814 247.391 283.814 226.965C283.814 206.54 267.256 189.981 246.83 189.981C226.404 189.981 209.846 206.54 209.846 226.965Z" fill="url(#paint12_linear_2408_333)"/>
<path d="M232.879 231.333C232.879 243.125 242.439 252.685 254.231 252.685C266.023 252.685 275.583 243.125 275.583 231.333C275.583 219.541 266.023 209.981 254.231 209.981C242.439 209.981 232.879 219.541 232.879 231.333Z" fill="url(#paint13_linear_2408_333)"/>
<path d="M258.797 233.529C258.797 237.672 262.156 241.031 266.299 241.031C270.442 241.031 273.801 237.672 273.801 233.529C273.801 229.386 270.442 226.027 266.299 226.027C262.156 226.027 258.797 229.386 258.797 233.529Z" fill="white"/>
<path d="M254.229 221.824C254.229 223.603 255.672 225.046 257.452 225.046C259.232 225.046 260.675 223.603 260.675 221.824C260.675 220.044 259.232 218.601 257.452 218.601C255.672 218.601 254.229 220.044 254.229 221.824Z" fill="white"/>
<path fill-rule="evenodd" clip-rule="evenodd" d="M236.138 191.55L279.203 209.068C272.897 197.686 260.763 189.981 246.83 189.981C243.112 189.981 239.523 190.53 236.138 191.55Z" fill="url(#paint14_linear_2408_333)"/>
<path d="M401.923 226.965C401.923 247.391 385.364 263.95 364.938 263.95C344.513 263.95 327.954 247.391 327.954 226.965C327.954 206.54 344.513 189.981 364.938 189.981C385.364 189.981 401.923 206.54 401.923 226.965Z" fill="url(#paint15_linear_2408_333)"/>
<path d="M378.888 231.333C378.888 243.125 369.329 252.685 357.536 252.685C345.744 252.685 336.185 243.125 336.185 231.333C336.185 219.541 345.744 209.981 357.536 209.981C369.329 209.981 378.888 219.541 378.888 231.333Z" fill="url(#paint16_linear_2408_333)"/>
<path d="M352.97 233.529C352.97 237.672 349.611 241.031 345.468 241.031C341.325 241.031 337.966 237.672 337.966 233.529C337.966 229.386 341.325 226.027 345.468 226.027C349.611 226.027 352.97 229.386 352.97 233.529Z" fill="white"/>
<path d="M357.538 221.824C357.538 223.603 356.095 225.046 354.315 225.046C352.536 225.046 351.093 223.603 351.093 221.824C351.093 220.044 352.536 218.601 354.315 218.601C356.095 218.601 357.538 220.044 357.538 221.824Z" fill="white"/>
<path fill-rule="evenodd" clip-rule="evenodd" d="M375.632 191.55L332.566 209.068C338.872 197.686 351.006 189.981 364.94 189.981C368.657 189.981 372.247 190.53 375.632 191.55Z" fill="url(#paint17_linear_2408_333)"/>
<defs>
<linearGradient id="paint0_linear_2408_333" x1="408.457" y1="274.081" x2="408.457" y2="467.71" gradientUnits="userSpaceOnUse">
<stop stop-color="#0FBED2"/>
<stop offset="1" stop-color="#935EA9"/>
</linearGradient>
<linearGradient id="paint1_linear_2408_333" x1="408.458" y1="274.081" x2="408.458" y2="467.71" gradientUnits="userSpaceOnUse">
<stop stop-color="#885EA3"/>
<stop offset="1" stop-color="#B57ACD"/>
</linearGradient>
<linearGradient id="paint2_linear_2408_333" x1="396.178" y1="279.98" x2="396.178" y2="451.503" gradientUnits="userSpaceOnUse">
<stop stop-color="#885EA3"/>
<stop offset="1" stop-color="#B57ACD"/>
</linearGradient>
<linearGradient id="paint3_linear_2408_333" x1="203.266" y1="274.081" x2="203.266" y2="467.71" gradientUnits="userSpaceOnUse">
<stop stop-color="#0FBED2"/>
<stop offset="1" stop-color="#935EA9"/>
</linearGradient>
<linearGradient id="paint4_linear_2408_333" x1="203.266" y1="274.081" x2="203.266" y2="467.71" gradientUnits="userSpaceOnUse">
<stop stop-color="#885EA3"/>
<stop offset="1" stop-color="#B57ACD"/>
</linearGradient>
<linearGradient id="paint5_linear_2408_333" x1="215.545" y1="279.98" x2="215.545" y2="451.503" gradientUnits="userSpaceOnUse">
<stop stop-color="#885EA3"/>
<stop offset="1" stop-color="#B57ACD"/>
</linearGradient>
<linearGradient id="paint6_linear_2408_333" x1="306" y1="248.8" x2="306" y2="511.146" gradientUnits="userSpaceOnUse">
<stop stop-color="#885EA3"/>
<stop offset="1" stop-color="#B57ACD"/>
</linearGradient>
<linearGradient id="paint7_linear_2408_333" x1="305.999" y1="100.854" x2="305.999" y2="267.988" gradientUnits="userSpaceOnUse">
<stop stop-color="#885EA3"/>
<stop offset="1" stop-color="#B57ACD"/>
</linearGradient>
<linearGradient id="paint8_linear_2408_333" x1="306.001" y1="129.377" x2="306.001" y2="267.745" gradientUnits="userSpaceOnUse">
<stop stop-color="#885EA3"/>
<stop offset="1" stop-color="#B57ACD"/>
</linearGradient>
<linearGradient id="paint9_linear_2408_333" x1="216.614" y1="119.152" x2="216.614" y2="310.731" gradientUnits="userSpaceOnUse">
<stop stop-color="#0FBED2"/>
<stop offset="1" stop-color="#935EA9"/>
</linearGradient>
<linearGradient id="paint10_linear_2408_333" x1="306.001" y1="319.661" x2="306.001" y2="263.949" gradientUnits="userSpaceOnUse">
<stop stop-color="#D9DF4C"/>
<stop offset="1" stop-color="#88CB99"/>
</linearGradient>
<linearGradient id="paint11_linear_2408_333" x1="306.001" y1="319.661" x2="306.001" y2="263.949" gradientUnits="userSpaceOnUse">
<stop stop-color="#D9DF4C"/>
<stop offset="1" stop-color="#88CB99"/>
</linearGradient>
<linearGradient id="paint12_linear_2408_333" x1="246.83" y1="189.981" x2="246.83" y2="263.95" gradientUnits="userSpaceOnUse">
<stop stop-color="white"/>
<stop offset="1" stop-color="#C4F0FF"/>
</linearGradient>
<linearGradient id="paint13_linear_2408_333" x1="254.231" y1="209.981" x2="254.231" y2="252.685" gradientUnits="userSpaceOnUse">
<stop stop-color="#08465F"/>
<stop offset="1" stop-color="#1D202B"/>
</linearGradient>
<linearGradient id="paint14_linear_2408_333" x1="257.67" y1="189.981" x2="257.67" y2="209.068" gradientUnits="userSpaceOnUse">
<stop stop-color="#32A4C7"/>
<stop offset="1" stop-color="#32A4C7" stop-opacity="0"/>
</linearGradient>
<linearGradient id="paint15_linear_2408_333" x1="364.938" y1="189.981" x2="364.938" y2="263.95" gradientUnits="userSpaceOnUse">
<stop stop-color="white"/>
<stop offset="1" stop-color="#C4F0FF"/>
</linearGradient>
<linearGradient id="paint16_linear_2408_333" x1="357.536" y1="209.981" x2="357.536" y2="252.685" gradientUnits="userSpaceOnUse">
<stop stop-color="#08465F"/>
<stop offset="1" stop-color="#1D202B"/>
</linearGradient>
<linearGradient id="paint17_linear_2408_333" x1="354.099" y1="189.981" x2="354.099" y2="209.068" gradientUnits="userSpaceOnUse">
<stop stop-color="#32A4C7"/>
<stop offset="1" stop-color="#32A4C7" stop-opacity="0"/>
</linearGradient>
</defs>
</svg>
