<svg width="33" height="32" viewBox="0 0 33 32" fill="none" xmlns="http://www.w3.org/2000/svg">
<path d="M11.8333 10.6666H18.5V13.3333H21.1667V21.3333H11.8333V10.6666ZM11.1657 9.33325C10.7983 9.33325 10.5 9.62929 10.5 9.99445V22.0054C10.5 22.3631 10.7965 22.6666 11.1623 22.6666H21.8377C22.2034 22.6666 22.5 22.3659 22.5 21.9949L22.4998 12.6666L19.1667 9.33325H11.1657ZM15.4999 12.9999C15.4999 14.0516 15.1961 15.2915 14.6833 16.4355C14.1686 17.5837 13.4743 18.5667 12.7502 19.146L13.5364 20.2213C15.4881 18.9202 17.6489 18.028 19.739 18.3266L20.0441 17.0341C18.2623 16.4402 16.8333 14.6599 16.8333 12.9999H15.4999ZM15.8999 16.981C16.0782 16.5834 16.2361 16.1708 16.3691 15.7523C16.6835 16.2353 17.0702 16.6787 17.5067 17.0635C16.8522 17.1807 16.211 17.373 15.5901 17.6183C15.6999 17.4095 15.8034 17.1965 15.8999 16.981Z" fill="#09090A"/>
<rect x="1" y="0.5" width="31" height="31" rx="15.5" stroke="#C7CCCF"/>
</svg>
